<?xml version="1.0" standalone="no"?><!DOCTYPE svg PUBLIC "-//W3C//DTD SVG 1.1//EN" "http://www.w3.org/Graphics/SVG/1.1/DTD/svg11.dtd"><svg t="1524124477615" class="icon" style="" viewBox="0 0 1024 1024" version="1.1" xmlns="http://www.w3.org/2000/svg" p-id="1192" xmlns:xlink="http://www.w3.org/1999/xlink" width="128" height="128"><defs><style type="text/css"></style></defs><path d="M802.6 750.2H220c-86.3 0-156.5-70.2-156.5-156.5V270.4c0-86.3 70.2-156.5 156.5-156.5h57.8c13.8 0 25 11.2 25 25s-11.2 25-25 25H220c-58.7 0-106.5 47.8-106.5 106.5v323.3c0 58.7 47.8 106.5 106.5 106.5h582.6c58.7 0 106.5-47.8 106.5-106.5V270.4c0-58.7-47.8-106.5-106.5-106.5H416.1c-13.8 0-25-11.2-25-25s11.2-25 25-25h386.5c86.3 0 156.5 70.2 156.5 156.5v323.3c0.1 86.3-70.2 156.5-156.5 156.5zM820 910.9H202.7c-13.8 0-25-11.2-25-25s11.2-25 25-25H820c13.8 0 25 11.2 25 25s-11.2 25-25 25z" p-id="1193"></path><path d="M689 402.2H333.7c-13.8 0-25-11.2-25-25s11.2-25 25-25H689c13.8 0 25 11.2 25 25s-11.2 25-25 25zM689 528.3H333.7c-13.8 0-25-11.2-25-25s11.2-25 25-25H689c13.8 0 25 11.2 25 25s-11.2 25-25 25z" p-id="1194"></path></svg>