<?xml version="1.0" standalone="no"?><!DOCTYPE svg PUBLIC "-//W3C//DTD SVG 1.1//EN" "http://www.w3.org/Graphics/SVG/1.1/DTD/svg11.dtd"><svg t="1527047631211" class="icon" style="" viewBox="0 0 1024 1024" version="1.1" xmlns="http://www.w3.org/2000/svg" p-id="2180" xmlns:xlink="http://www.w3.org/1999/xlink" width="200" height="200"><defs><style type="text/css"></style></defs><path d="M64.713884 650.40421l892.684232 0 0 55.053873-892.684232 0 0-55.053873Z" p-id="2181"></path><path d="M511.057535 237.487879l446.340581 0 0 55.056943-446.340581 0 0-55.056943Z" p-id="2182"></path><path d="M189.225689 484.367663l188.95349 0 46.288233 114.748441 64.741513 0L316.369438 179.904393l-62.694901 0L80.833003 599.116103l64.74356 0L189.225689 484.367663zM275.649014 262.71954c2.731204-6.856152 5.172813-16.597003 7.319709-29.229718l1.467421 0c2.535753 13.895475 4.880147 23.636327 7.030114 29.229718l68.549236 174.288488L207.68204 437.008029 275.649014 262.71954z" p-id="2183"></path><path d="M511.057535 375.128703l446.340581 0 0 55.053873-446.340581 0 0-55.053873Z" p-id="2184"></path><path d="M64.713884 788.04094l892.684232 0 0 55.054897-892.684232 0 0-55.054897Z" p-id="2185"></path><path d="M511.057535 512.766456l446.340581 0 0 55.054897-446.340581 0 0-55.054897Z" p-id="2186"></path></svg>