<?xml version="1.0" encoding="utf-8"?>
<!-- Generator: Adobe Illustrator 21.0.0, SVG Export Plug-In . SVG Version: 6.00 Build 0)  -->
<svg version="1.1" id="图层_1" xmlns="http://www.w3.org/2000/svg" xmlns:xlink="http://www.w3.org/1999/xlink" x="0px" y="0px"
	 viewBox="0 0 48 48" style="enable-background:new 0 0 48 48;" xml:space="preserve">
<style type="text/css">
	.st0{fill:#060001;}
	.st1{fill:#040000;}
	.st2{fill:none;stroke:#000000;stroke-miterlimit:10;}
	.st3{fill:#221815;}
	.st4{fill:#080102;}
	.st5{fill:none;stroke:#000000;stroke-width:2;stroke-linecap:round;stroke-linejoin:round;stroke-miterlimit:10;}
	.st6{fill:#070001;}
</style>
<path d="M39.9,16.4c0.1,0.2,0.2,0.4,0.3,0.6l1.8-0.8c-0.1-0.2-0.2-0.4-0.3-0.6C39.4,10.7,35.1,7,29.9,5.4l-0.6,1.9
	C34,8.7,37.8,12.1,39.9,16.4z M16.6,8c0.2-0.1,0.3-0.1,0.5-0.2L16.3,6c-0.2,0.1-0.3,0.2-0.5,0.2C10.9,8.4,7,12.7,5.3,17.8l1.9,0.6
	C8.8,13.8,12.2,10,16.6,8z M31.4,39.7c-0.2,0.1-0.4,0.2-0.6,0.3l0.8,1.8c0.2-0.1,0.4-0.2,0.6-0.3c4.9-2.3,8.6-6.6,10.2-11.7
	l-1.9-0.6C39.2,33.9,35.8,37.7,31.4,39.7z M8,31.2c0-0.1-0.1-0.3-0.2-0.4l-1.8,0.8C6,31.8,6,31.9,6.1,32.1
	c2.2,4.9,6.5,8.7,11.6,10.4l0.6-1.9C13.8,39,10,35.6,8,31.2z M42,19.1c-0.9,0-1.8,0.3-2.5,0.9c-2.2-2.3-5-3.9-8.1-4.9
	c-0.6-1.2-1.4-2.4-2.3-3.4l-0.8,0.6c0.6,0.7,1.2,1.6,1.7,2.4c-1.7-0.4-3.4-0.6-5.1-0.6c-3,0-6,0.6-8.6,1.8c1-2.6,2.4-4.9,4.3-6.7
	c0.7,0.5,1.5,0.8,2.4,0.8c2.2,0,4-1.8,4-4c0-2.2-1.8-4-4-4c-2.2,0-4,1.8-4,4c0,0.9,0.3,1.8,0.9,2.5c-2.3,2.2-3.9,5-4.9,8.1
	c-1.2,0.6-2.4,1.4-3.4,2.3l0.6,0.8c0.7-0.6,1.6-1.2,2.4-1.7c-0.4,1.7-0.6,3.4-0.6,5.1c0,3,0.6,6,1.8,8.6c-2.6-1-4.9-2.4-6.7-4.3
	c0.5-0.7,0.8-1.5,0.8-2.4c0-2.2-1.8-4-4-4s-4,1.8-4,4c0,2.2,1.8,4,4,4c0.9,0,1.8-0.3,2.5-0.9c2.2,2.3,5,3.9,8.1,4.9
	c0.6,1.2,1.4,2.4,2.3,3.4l0.8-0.6c-0.6-0.7-1.2-1.6-1.7-2.4c1.7,0.4,3.4,0.6,5.1,0.6c3,0,6-0.6,8.6-1.8c-1,2.6-2.4,4.9-4.3,6.7
	c-0.7-0.5-1.5-0.8-2.4-0.8c-2.2,0-4,1.8-4,4c0,2.2,1.8,4,4,4c2.2,0,4-1.8,4-4c0-0.9-0.3-1.8-0.9-2.5c2.3-2.2,3.9-5,4.9-8.1
	c1.2-0.6,2.4-1.4,3.4-2.3l-0.6-0.8c-0.7,0.6-1.6,1.2-2.4,1.7c0.4-1.7,0.6-3.4,0.6-5.1c0-3-0.6-6-1.8-8.6c2.6,1,4.9,2.4,6.7,4.3
	c-0.5,0.7-0.8,1.5-0.8,2.4c0,2.2,1.8,4,4,4c2.2,0,4-1.8,4-4C46,20.9,44.2,19.1,42,19.1z M23.1,3c1.7,0,3,1.3,3,3s-1.3,3-3,3
	s-3-1.3-3-3S21.5,3,23.1,3z M6,27.9c-1.7,0-3-1.3-3-3c0-1.7,1.3-3,3-3s3,1.3,3,3C9,26.5,7.7,27.9,6,27.9z M24.9,45c-1.7,0-3-1.3-3-3
	c0-1.7,1.3-3,3-3s3,1.3,3,3C27.9,43.7,26.5,45,24.9,45z M32.9,25c0,2-0.3,3.9-0.8,5.8c-2.7,1.4-5.8,2.1-9,2.1c-2,0-3.9-0.3-5.8-0.8
	c-1.4-2.7-2.1-5.8-2.1-9c0-2,0.3-3.9,0.8-5.8c2.7-1.4,5.8-2.1,9-2.1c2,0,3.9,0.3,5.8,0.8C32.1,18.7,32.9,21.8,32.9,25z M42,26.1
	c-1.7,0-3-1.3-3-3c0-1.7,1.3-3,3-3s3,1.3,3,3C45,24.8,43.7,26.1,42,26.1z"/>
</svg>
