<?xml version="1.0" standalone="no"?><!DOCTYPE svg PUBLIC "-//W3C//DTD SVG 1.1//EN" "http://www.w3.org/Graphics/SVG/1.1/DTD/svg11.dtd"><svg t="1525245715062" class="icon" style="" viewBox="0 0 1026 1024" version="1.1" xmlns="http://www.w3.org/2000/svg" p-id="4960" xmlns:xlink="http://www.w3.org/1999/xlink" width="200.390625" height="200"><defs><style type="text/css"></style></defs><path d="M184.685714 220.342857l146.285714 0 0 109.714286-146.285714 0 0-109.714286Z" p-id="4961"></path><path d="M404.114286 220.342857l146.285714 0 0 109.714286-146.285714 0 0-109.714286Z" p-id="4962"></path><path d="M184.685714 403.2l146.285714 0 0 109.714286-146.285714 0 0-109.714286Z" p-id="4963"></path><path d="M404.114286 403.2l146.285714 0 0 109.714286-146.285714 0 0-109.714286Z" p-id="4964"></path><path d="M769.828571 403.2l73.142857 0 0 109.714286-73.142857 0 0-109.714286Z" p-id="4965"></path><path d="M769.828571 586.057143l73.142857 0 0 109.714286-73.142857 0 0-109.714286Z" p-id="4966"></path><path d="M184.685714 586.057143l146.285714 0 0 109.714286-146.285714 0 0-109.714286Z" p-id="4967"></path><path d="M404.114286 586.057143l146.285714 0 0 109.714286-146.285714 0 0-109.714286Z" p-id="4968"></path><path d="M989.257143 915.2l0-658.285714-292.571429 0 0-219.428571-658.285714 0 0 877.714286-36.571429 0 0 73.142857 1024 0 0-73.142857L989.257143 915.2zM111.542857 915.2l0-804.571429 512 0 0 804.571429L111.542857 915.2zM696.685714 915.2l0-585.142857 219.428571 0 0 585.142857L696.685714 915.2z" p-id="4969"></path></svg>