<?xml version="1.0" standalone="no"?><!DOCTYPE svg PUBLIC "-//W3C//DTD SVG 1.1//EN" "http://www.w3.org/Graphics/SVG/1.1/DTD/svg11.dtd"><svg t="1525247582850" class="icon" style="" viewBox="0 0 1024 1024" version="1.1" xmlns="http://www.w3.org/2000/svg" p-id="7983" xmlns:xlink="http://www.w3.org/1999/xlink" width="200" height="200"><defs><style type="text/css"></style></defs><path d="M880.975699 377.117465c-49.327476-158.362258-196.352048-273.621049-370.97123-273.621049S188.360715 218.755208 139.033239 377.117465c-46.564433 35.570593-76.720486 91.511974-76.720486 154.61373 0 84.290199 53.661359 155.836632 128.609404 182.903194 60.110506 86.442303 154.085682 147.30804 262.894303 163.120831 6.718287 24.866361 29.201268 43.262085 56.188008 43.262085 32.231405 0 58.378999-26.147594 58.378999-58.384116 0-32.253919-26.147594-58.400489-58.378999-58.400489-23.670066 0-43.934426 14.144732-53.094424 34.369181-82.066462-12.573891-154.572796-53.438269-207.461526-112.611387 2.521532 0.098242 5.002131 0.383756 7.52878 0.383756 42.975548 0 77.853333-34.856295 77.853333-77.85845l0-233.56921c0-42.998061-34.877786-77.85845-77.853333-77.85845-23.178858 0-45.317994 4.254062-65.912895 11.681531 54.901659-121.587183 176.8552-206.346076 318.939043-206.346076 142.079749 0 264.033291 84.758893 318.957463 206.346076-20.595925-7.427468-42.735061-11.681531-65.913919-11.681531-42.979641 0-77.85845 34.860389-77.85845 77.85845l0 233.56921c0 43.002155 34.878809 77.85845 77.85845 77.85845 107.504875 0 194.643055-87.13818 194.643055-194.643055C957.691068 468.62944 927.535016 412.687035 880.975699 377.117465L880.975699 377.117465zM510.004469 843.158855c10.743119 0 19.474334 8.712795 19.474334 19.474334 0 10.748236-8.731215 19.455914-19.474334 19.455914-10.748236 0-19.474334-8.708701-19.474334-19.455914C490.530135 851.87165 499.256233 843.158855 510.004469 843.158855L510.004469 843.158855zM295.9055 414.94659l0 233.56921c0 21.509776-17.416379 38.932295-38.927178 38.932295-86.016589 0-155.715877-69.699287-155.715877-155.7169 0-86.016589 69.716684-155.715877 155.715877-155.715877C278.465584 376.015318 295.9055 393.436814 295.9055 414.94659L295.9055 414.94659zM763.048013 687.424558c-21.509776 0-38.926155-17.416379-38.926155-38.926155l0-233.551813c0-21.509776 17.416379-38.931272 38.926155-38.931272 86.018636 0 155.7169 69.698264 155.7169 155.715877C918.764914 617.747784 849.048229 687.424558 763.048013 687.424558L763.048013 687.424558zM763.048013 687.424558" p-id="7984"></path></svg>