<?xml version="1.0" standalone="no"?><!DOCTYPE svg PUBLIC "-//W3C//DTD SVG 1.1//EN" "http://www.w3.org/Graphics/SVG/1.1/DTD/svg11.dtd"><svg t="1524474951306" class="icon" style="" viewBox="0 0 1030 1024" version="1.1" xmlns="http://www.w3.org/2000/svg" p-id="3745" xmlns:xlink="http://www.w3.org/1999/xlink" width="128.75" height="128"><defs><style type="text/css"></style></defs><path d="M497.152 1024H43.008c-14.336 0-25.6-11.264-25.6-25.6V40.96c0-14.336 11.264-25.6 25.6-25.6h454.144c14.336 0 25.6 11.264 25.6 25.6v957.44c0 14.336-11.264 25.6-25.6 25.6z m-428.544-51.2h402.944V66.56H68.608v906.24z" p-id="3746"></path><path d="M240.64 252.928H77.312c-14.336 0-25.6-11.264-25.6-25.6s11.264-25.6 25.6-25.6H240.64c14.336 0 25.6 11.264 25.6 25.6s-11.264 25.6-25.6 25.6zM240.64 643.584H77.312c-14.336 0-25.6-11.264-25.6-25.6s11.264-25.6 25.6-25.6H240.64c14.336 0 25.6 11.264 25.6 25.6s-11.264 25.6-25.6 25.6zM351.232 448.512H77.312c-14.336 0-25.6-11.264-25.6-25.6s11.264-25.6 25.6-25.6h273.92c14.336 0 25.6 11.264 25.6 25.6s-11.264 25.6-25.6 25.6zM351.232 839.68H77.312c-14.336 0-25.6-11.264-25.6-25.6s11.264-25.6 25.6-25.6h273.92c14.336 0 25.6 11.264 25.6 25.6s-11.264 25.6-25.6 25.6zM729.6 1024c-7.68 0-14.848-3.584-19.968-9.728l-125.44-155.136c-3.584-4.608-5.632-10.24-5.632-15.872V250.88c0-14.336 11.264-25.6 25.6-25.6h250.88c14.336 0 25.6 11.264 25.6 25.6v592.384c0 5.632-2.048 11.776-5.632 15.872l-125.44 155.136c-5.12 6.144-12.288 9.728-19.968 9.728zM629.76 834.048l99.84 123.392 99.84-123.392V276.48h-199.68v557.568z" p-id="3747"></path><path d="M855.04 390.656h-250.88c-14.336 0-25.6-11.264-25.6-25.6s11.264-25.6 25.6-25.6h250.88c14.336 0 25.6 11.264 25.6 25.6s-11.264 25.6-25.6 25.6zM846.336 848.384h-240.64c-14.336 0-25.6-11.264-25.6-25.6s11.264-25.6 25.6-25.6h240.64c14.336 0 25.6 11.264 25.6 25.6s-11.264 25.6-25.6 25.6z" p-id="3748"></path></svg>