<?xml version="1.0" standalone="no"?><!DOCTYPE svg PUBLIC "-//W3C//DTD SVG 1.1//EN" "http://www.w3.org/Graphics/SVG/1.1/DTD/svg11.dtd"><svg t="1524626277431" class="icon" style="" viewBox="0 0 1024 1024" version="1.1" xmlns="http://www.w3.org/2000/svg" p-id="5620" xmlns:xlink="http://www.w3.org/1999/xlink" width="200" height="200"><defs><style type="text/css"></style></defs><path d="M42.65984 42.65984l482.67264 0 418.67264 418.32448q37.33504 37.33504 37.33504 90.33728 0 53.32992-37.33504 90.66496l-301.99808 301.99808q-37.33504 37.33504-90.33728 37.33504-53.32992 0-90.66496-37.33504l-418.32448-418.67264 0-482.67264zM883.67104 521.33888l-393.66656-393.33888-362.00448 0 0 362.00448 393.33888 393.66656q12.67712 12.32896 30.33088 12.32896t30.0032-12.32896l301.99808-301.99808q12.32896-12.32896 12.32896-30.0032t-12.32896-30.33088zM362.65984 256q44.3392 0 75.50976 31.17056t31.17056 75.50976-31.17056 75.50976-75.50976 31.17056-75.50976-31.17056-31.17056-75.50976 31.17056-75.50976 75.50976-31.17056zM362.65984 341.34016q-8.66304 0-14.99136 6.32832t-6.32832 14.99136 6.32832 14.99136 14.99136 6.32832 14.99136-6.32832 6.32832-14.99136-6.32832-14.99136-14.99136-6.32832z" p-id="5621"></path></svg>